<?xml version="1.0" encoding="UTF-8" standalone="no"?>
<svg width="307px" height="291px" viewBox="0 0 307 291" version="1.1" xmlns="http://www.w3.org/2000/svg" xmlns:xlink="http://www.w3.org/1999/xlink" xmlns:sketch="http://www.bohemiancoding.com/sketch/ns">
    <!-- Generator: Sketch 3.5.1 (25234) - http://www.bohemiancoding.com/sketch -->
    <title>coffeeMug</title>
    <desc>Created with Sketch.</desc>
    <defs></defs>
    <g id="Page-1" stroke="none" stroke-width="1" fill="none" fill-rule="evenodd" sketch:type="MSPage">
        <g id="coffeeMug" sketch:type="MSLayerGroup" transform="translate(12.000000, 9.000000)" stroke="#4A4A4A" stroke-width="20">
            <g id="coffeeCup" transform="translate(0.000000, 151.000000)" sketch:type="MSShapeGroup">
                <path d="M120,121 C186.27417,121 240,67.27417 240,1 C240,0.999999959 0,1.00000018 0,1 C0,67.27417 53.72583,121 120,121 Z" id="coffeeCup--body"></path>
                <path d="M224.845821,63.7140332 C224.921456,74.9687088 227.62571,82 243,82 C266.195959,82 285,63.8675324 285,41.5 C285,19.1324676 266.192672,0.474165176 243,1 C242.34375,13.3642578 233.941406,41.9619141 224.845821,63.7140332 Z" id="coffeeCup--handle"></path>
            </g>
            <g id="coffeeHeat" transform="translate(25.000000, 0.000000)" sketch:type="MSShapeGroup">
                <path d="M10.8125,118.990234 C6.23636315,110.179463 -1.37094565,100.914417 0.73828125,89.9433594 C1.23369272,87.3664969 3.28515484,85.2256477 5.26367187,83.5019531 C12.8152031,76.9230188 22.4378754,72.6927436 29.1113281,65.2246094 C46.4454115,45.8263658 27.6009594,7.94003931 7.35351562,0.81640625" id="coffeeHeat--left"></path>
                <path d="M90.8125,118.990234 C86.2363631,110.179463 78.6290543,100.914417 80.7382812,89.9433594 C81.2336927,87.3664969 83.2851548,85.2256477 85.2636719,83.5019531 C92.8152031,76.9230188 102.437875,72.6927436 109.111328,65.2246094 C126.445411,45.8263658 107.600959,7.94003931 87.3535156,0.81640625" id="coffeeHeat--center"></path>
                <path d="M160.8125,118.990234 C156.236363,110.179463 148.629054,100.914417 150.738281,89.9433594 C151.233693,87.3664969 153.285155,85.2256477 155.263672,83.5019531 C162.815203,76.9230188 172.437875,72.6927436 179.111328,65.2246094 C196.445411,45.8263658 177.600959,7.94003931 157.353516,0.81640625" id="coffeeHeat--right"></path>
            </g>
        </g>
    </g>
</svg>