<?xml version="1.0" encoding="UTF-8" standalone="no"?>
<svg width="68px" height="67px" viewBox="0 0 68 67" version="1.1" xmlns="http://www.w3.org/2000/svg" xmlns:xlink="http://www.w3.org/1999/xlink" xmlns:sketch="http://www.bohemiancoding.com/sketch/ns">
    <!-- Generator: Sketch 3.5.1 (25234) - http://www.bohemiancoding.com/sketch -->
    <title>pie</title>
    <desc>Created with Sketch.</desc>
    <defs></defs>
    <g id="Page-1" stroke="none" stroke-width="1" fill="none" fill-rule="evenodd" sketch:type="MSPage">
        <g id="pie" sketch:type="MSLayerGroup" fill="#000000">
            <g id="Group" sketch:type="MSShapeGroup">
                <g id="pie" transform="translate(0.000000, 24.000000)">
                    <path d="M15.4897959,15.2954545 C15.196898,15.2954545 14.9068163,15.1987273 14.6533469,14.9992273 C14.0281224,14.5035 13.8929388,13.5573864 14.3576327,12.8863409 C15.9713878,10.5346591 18.9651429,9.35277273 21.0604898,9.25 C21.9448163,9.1835 22.4968163,9.86059091 22.5277959,10.6918409 C22.5644082,11.5230909 21.9645306,12.2304091 21.1844082,12.2697045 C19.725551,12.3392273 17.6302041,13.2097727 16.6219592,14.6788182 C16.3487755,15.0838636 15.9206939,15.2954545 15.4897959,15.2954545 L15.4897959,15.2954545 Z" id="Shape"></path>
                    <path d="M26.755102,18.3121364 L26.7494694,18.3121364 C25.9749796,18.3091136 25.3469388,17.6380682 25.3469388,16.8068182 C25.3469388,15.0838636 27.1831837,10.8248409 28.712449,9.56436364 C29.3264082,9.05654545 30.2079184,9.17443182 30.6866939,9.84245455 C31.1598367,10.5044318 31.0443673,11.4535682 30.4275918,11.9613864 C29.6333878,12.6173182 28.168898,15.9120909 28.1632653,16.8068182 C28.1576327,17.6380682 27.5267755,18.3121364 26.755102,18.3121364 L26.755102,18.3121364 Z" id="Shape"></path>
                    <path d="M33.7959184,42.5 C10.9048163,42.5 8.68555102,36.4364091 8.47432653,35.2212727 L6.15367347,22.7646136 C4.87506122,23.8165227 3.29228571,24.6659091 1.90665306,24.0915909 C0.642122449,23.5656364 0,22.1298409 0,19.8295455 C0,11.9341818 20.2155918,0.181818182 33.7959184,0.181818182 C47.3762449,0.181818182 67.5918367,11.9341818 67.5918367,19.8295455 C67.5918367,22.1237955 66.670898,23.0547955 65.8992245,23.4296136 C64.5333061,24.0915909 62.8266122,23.3389318 61.4973061,22.4593182 L59.1146939,35.2394091 C58.9062857,36.4364091 56.6870204,42.5 33.7959184,42.5 L33.7959184,42.5 Z M11.2371429,34.6469545 C11.2540408,34.6469545 13.3803673,39.4772727 33.7959184,39.4772727 C53.8932245,39.4772727 56.3434286,34.7134545 56.3518776,34.6650909 L59.1710204,19.5333182 C59.2695918,19.0043409 59.6216327,18.5751136 60.0975918,18.3997955 C60.5763673,18.2214545 61.1002041,18.3393409 61.4775918,18.693 C62.6182041,19.7600227 64.0911429,20.7272955 64.7163673,20.6728864 C64.7022857,20.6215 64.7755102,20.3706136 64.7755102,19.8295455 C64.7755102,14.7453182 46.7707347,3.20454545 33.7959184,3.20454545 C20.821102,3.20454545 2.81632653,14.7453182 2.81632653,19.8295455 C2.81632653,21.0386364 3.03318367,21.3499773 3.036,21.353 C3.37395918,21.2895227 4.90040816,20.0985682 6.00159184,18.8078636 C6.36208163,18.3877045 6.90563265,18.2214545 7.42102041,18.3725909 C7.93077551,18.52675 8.31661224,18.9741136 8.42081633,19.5302955 L11.2371429,34.6469545 L11.2371429,34.6469545 L11.2371429,34.6469545 Z" id="Shape"></path>
                    <path d="M40.726898,27.4982045 C38.1781224,27.4982045 35.7082041,26.5823182 33.7959184,24.9167955 C31.3879592,27.0145682 28.0900408,27.9183636 24.8681633,27.3077727 C22.1560408,26.7878636 19.8748163,25.3157955 18.3258367,23.1424545 C16.1966939,26.6155682 14.1238776,27.3652045 12.5157551,27.3198636 C9.8402449,27.2352273 7.43228571,24.7807727 5.7424898,20.4099091 C5.44677551,19.6391136 5.78755102,18.7534545 6.50571429,18.4330455 C7.2182449,18.1186818 8.04906122,18.4783864 8.34477551,19.2491818 C9.53044898,22.31725 11.161102,24.2517955 12.6030612,24.2971364 L12.6593878,24.2971364 C14.067551,24.2971364 15.6221633,22.5772045 17.0472245,19.4396136 C17.2894286,18.9045909 17.7766531,18.5569773 18.354,18.5902273 C18.9088163,18.6083636 19.4016735,18.9710909 19.612898,19.5212273 C20.5986122,22.0663636 22.6967755,23.8195455 25.3666531,24.3334091 C28.1322857,24.8654091 30.9767755,23.9041818 32.7679592,21.8275682 C33.3002449,21.2079091 34.3028571,21.2079091 34.8351429,21.8275682 C36.6263265,23.9041818 39.468,24.8714545 42.236449,24.3334091 C44.9063265,23.8225682 47.0044898,22.0663636 47.9902041,19.5212273 C48.2014286,18.9710909 48.6942857,18.6083636 49.249102,18.5902273 C49.7306939,18.5539545 50.3108571,18.9045909 50.5558776,19.4396136 C52.0006531,22.6165 53.4482449,24.3999091 54.9972245,24.2971364 C56.4391837,24.2517955 58.0698367,22.31725 59.2555102,19.2491818 C59.5540408,18.4783864 60.3792245,18.1186818 61.0945714,18.4330455 C61.8127347,18.7534545 62.1535102,19.6360909 61.8577959,20.4099091 C60.1651837,24.7807727 57.7600408,27.2322045 55.0845306,27.3198636 C55.0366531,27.3198636 54.9915918,27.3228864 54.9465306,27.3228864 C53.422898,27.3228864 51.3388163,26.5127955 49.2716327,23.1424545 C47.7226531,25.3157955 45.4414286,26.7908864 42.7293061,27.3077727 C42.0590204,27.4347273 41.3887347,27.4982045 40.726898,27.4982045 L40.726898,27.4982045 Z" id="Shape"></path>
                    <path d="M52.1020408,15.2954545 C51.6711429,15.2954545 51.2430612,15.0838636 50.9698776,14.6788182 C49.9616327,13.2097727 47.8634694,12.34225 46.4074286,12.2697045 C45.6301224,12.2304091 45.0302449,11.5230909 45.0640408,10.6918409 C45.1006531,9.86059091 45.6920816,9.19559091 46.5313469,9.25 C48.6266939,9.35277273 51.620449,10.5346591 53.2342041,12.8863409 C53.6960816,13.5573864 53.560898,14.5035 52.9384898,14.9992273 C52.6850204,15.1987273 52.3949388,15.2954545 52.1020408,15.2954545 L52.1020408,15.2954545 Z" id="Shape"></path>
                    <path d="M40.8367347,18.3181818 C40.0594286,18.3181818 39.4285714,17.6410909 39.4285714,16.8068182 C39.4229388,15.9120909 37.958449,12.6173182 37.1614286,11.9583636 C36.5446531,11.4505455 36.4291837,10.5014091 36.9023265,9.83943182 C37.3782857,9.17140909 38.2597959,9.05352273 38.8765714,9.56134091 C40.4086531,10.8248409 42.244898,15.0838636 42.244898,16.8068182 C42.244898,17.6410909 41.6140408,18.3181818 40.8367347,18.3181818 L40.8367347,18.3181818 Z" id="Shape"></path>
                </g>
                <g id="smellLines" transform="translate(19.714286, 0.000000)">
                    <path d="M2.86420408,21.1590909 C2.50371429,21.1590909 2.14322449,21.0109773 1.86722449,20.7177727 C1.31804082,20.1283409 1.31804082,19.1701364 1.86722449,18.5807045 C3.588,16.7307955 2.88110204,14.4879318 1.58559184,10.9785455 C0.380204082,7.714 -1.12089796,3.65145455 1.86722449,0.444340909 C2.41640816,-0.145090909 3.30918367,-0.145090909 3.85836735,0.444340909 C4.40755102,1.03377273 4.40755102,1.99197727 3.85836735,2.58140909 C2.2615102,4.29529545 2.9515102,6.46561364 4.20477551,9.86315909 C5.44114286,13.2062955 6.97885714,17.3685909 3.85836735,20.7177727 C3.58236735,21.0109773 3.22469388,21.1590909 2.86420408,21.1590909 L2.86420408,21.1590909 Z" id="smileLine--left"></path>
                    <path d="M14.059102,21.1590909 C13.6986122,21.1590909 13.3381224,21.0109773 13.0621224,20.7177727 C12.5129388,20.1283409 12.5129388,19.1701364 13.0621224,18.5807045 C14.782898,16.7307955 14.076,14.4879318 12.7804898,10.9785455 C11.575102,7.714 10.074,3.65145455 13.0621224,0.444340909 C13.6113061,-0.145090909 14.5040816,-0.145090909 15.0532653,0.444340909 C15.602449,1.03377273 15.602449,1.99197727 15.0532653,2.58140909 C13.4564082,4.29529545 14.1464082,6.46561364 15.3996735,9.86315909 C16.6332245,13.2062955 18.1709388,17.3685909 15.0532653,20.7177727 C14.7800816,21.0109773 14.4195918,21.1590909 14.059102,21.1590909 L14.059102,21.1590909 Z" id="smellLine--center"></path>
                    <path d="M24.3274286,20.7177727 C23.7782449,20.1283409 23.7782449,19.1701364 24.3274286,18.5807045 C26.0482041,16.7307955 25.3413061,14.4879318 24.0457959,10.9785455 C22.8404082,7.714 21.3393061,3.65145455 24.3274286,0.444340909 C24.8766122,-0.145090909 25.7693878,-0.145090909 26.3185714,0.444340909 C26.8677551,1.03377273 26.8677551,1.99197727 26.3185714,2.58140909 C24.7217143,4.29529545 25.4117143,6.46561364 26.6649796,9.86315909 C27.8985306,13.2062955 29.4362449,17.3685909 26.3185714,20.7177727 C26.0453878,21.0109773 25.684898,21.1590909 25.3244082,21.1590909 C24.9639184,21.1590909 24.6034286,21.0109773 24.3274286,20.7177727 Z" id="smellLine--right"></path>
                </g>
            </g>
        </g>
    </g>
</svg>