<svg xmlns="http://www.w3.org/2000/svg" xmlns:xlink="http://www.w3.org/1999/xlink" version="1.1" x="0px" y="0px" viewBox="0 0 60 75" enable-background="new 0 0 60 60" xml:space="preserve"><rect x="-420.0126648" y="-744.6329346" display="none" fill="#000000" width="832.911377" height="826.0680542"/><path d="M57.4482422,8.5341797H42.1152344V2.3769531c0-0.2763672-0.2236328-0.5-0.5-0.5s-0.5,0.2236328-0.5,0.5v6.1572266  H18.8847656V2.3769531c0-0.2763672-0.2236328-0.5-0.5-0.5s-0.5,0.2236328-0.5,0.5v6.1572266H2.5517578  c-0.8271484,0-1.5,0.6728516-1.5,1.5v46.5888672c0,0.8271484,0.6728516,1.5,1.5,1.5h54.8964844c0.8271484,0,1.5-0.6728516,1.5-1.5  V10.0341797C58.9482422,9.2070312,58.2753906,8.5341797,57.4482422,8.5341797z M17.3076172,24.7871094v7.5400391h-7.1279297  v-7.5400391H17.3076172z M25.4355469,24.7871094v7.5400391h-7.1279297v-7.5400391H25.4355469z M33.6640625,24.7871094v7.5400391  h-7.2285156v-7.5400391H33.6640625z M2.0517578,33.3271484h7.1279297v7.1279297H2.0517578V33.3271484z M10.1796875,33.3271484  h7.1279297v7.1279297h-7.1279297V33.3271484z M18.3076172,33.3271484h7.1279297v7.1279297h-7.1279297V33.3271484z   M26.4355469,33.3271484h7.2285156v7.1279297h-7.2285156V33.3271484z M25.4355469,41.4550781v7.1279297h-7.1279297v-7.1279297  H25.4355469z M26.4355469,41.4550781h7.2285156v7.1279297h-7.2285156V41.4550781z M34.4648438,41.4550781h7.3271484v7.1279297  h-7.3271484V41.4550781z M34.4648438,40.4550781v-7.1279297h7.3271484v7.1279297H34.4648438z M42.5927734,33.3271484h7.3271484  v7.1279297h-7.3271484V33.3271484z M50.7207031,33.3271484h7.2275391v7.1279297h-7.2275391V33.3271484z M57.9482422,32.3271484  h-7.2275391v-7.5400391h7.2275391V32.3271484z M49.9199219,32.3271484h-7.3271484v-7.5400391h7.3271484V32.3271484z   M41.7919922,32.3271484h-7.3271484v-7.5400391h7.3271484V32.3271484z M9.1796875,32.3271484H2.0517578v-7.5400391h7.1279297  V32.3271484z M2.0517578,41.4550781h7.1279297v7.1279297H2.0517578V41.4550781z M10.1796875,41.4550781h7.1279297v7.1279297  h-7.1279297V41.4550781z M17.3076172,49.5830078v7.5400391h-7.1279297v-7.5400391H17.3076172z M18.3076172,49.5830078h7.1279297  v7.5400391h-7.1279297V49.5830078z M26.4355469,49.5830078h7.2285156v7.5400391h-7.2285156V49.5830078z M34.4648438,49.5830078  h7.3271484v7.5400391h-7.3271484V49.5830078z M42.5927734,49.5830078h7.3271484v7.5400391h-7.3271484V49.5830078z   M42.5927734,48.5830078v-7.1279297h7.3271484v7.1279297H42.5927734z M50.7207031,41.4550781h7.2275391v7.1279297h-7.2275391  V41.4550781z M2.5517578,9.5341797h15.3330078v2.8913574c-1.5908203,0.2432251-2.8164062,1.6079712-2.8164062,3.2658691  c0,1.8291016,1.4873047,3.3164062,3.3164062,3.3164062s3.3164062-1.4873047,3.3164062-3.3164062  c0-1.6578979-1.2255859-3.022644-2.8164062-3.2658691V9.5341797h22.2304688v2.9910278  c-1.5352783,0.2424316-2.7167969,1.5639648-2.7167969,3.1661987c0,1.7734375,1.4433594,3.2167969,3.2167969,3.2167969  s3.2167969-1.4433594,3.2167969-3.2167969c0-1.6022339-1.1815186-2.9237671-2.7167969-3.1661987V9.5341797h15.3330078  c0.2753906,0,0.5,0.2246094,0.5,0.5v13.7529297H2.0517578V10.0341797C2.0517578,9.7587891,2.2763672,9.5341797,2.5517578,9.5341797z   M18.3847656,16.1914062c0.2763672,0,0.5-0.2236328,0.5-0.5v-2.2587891  c1.0371704,0.2296143,1.8164062,1.1535034,1.8164062,2.2587891c0,1.2773438-1.0390625,2.3164062-2.3164062,2.3164062  s-2.3164062-1.0390625-2.3164062-2.3164062c0-1.1052856,0.7792358-2.0291748,1.8164062-2.2587891v2.2587891  C17.8847656,15.9677734,18.1083984,16.1914062,18.3847656,16.1914062z M41.6152344,16.1914062c0.2763672,0,0.5-0.2236328,0.5-0.5  v-2.3625488c1.0927124,0.2311401,1.9160156,1.2020874,1.9160156,2.3625488c0,1.3320312-1.0839844,2.4160156-2.4160156,2.4160156  s-2.4160156-1.0839844-2.4160156-2.4160156c0-1.1604614,0.8233032-2.1314087,1.9160156-2.3625488v2.3625488  C41.1152344,15.9677734,41.3388672,16.1914062,41.6152344,16.1914062z M2.0517578,56.6230469v-7.0400391h7.1279297v7.5400391  H2.5517578C2.2763672,57.1230469,2.0517578,56.8984375,2.0517578,56.6230469z M57.4482422,57.1230469h-6.7275391v-7.5400391  h7.2275391v7.0400391C57.9482422,56.8984375,57.7236328,57.1230469,57.4482422,57.1230469z"/><!-- <text x="0" y="75" fill="#000000" font-size="5px" font-weight="bold" font-family="'Helvetica Neue', Helvetica, Arial-Unicode, Arial, Sans-serif">Created by Josh Sorosky</text><text x="0" y="80" fill="#000000" font-size="5px" font-weight="bold" font-family="'Helvetica Neue', Helvetica, Arial-Unicode, Arial, Sans-serif">from the Noun Project</text> --></svg>